<mxfile host="app.diagrams.net" agent="Mozilla/5.0 (Windows NT 10.0; Win64; x64) AppleWebKit/537.36 (KHTML, like Gecko) Chrome/136.0.0.0 Safari/537.36" version="26.2.14">
  <diagram name="第 1 页" id="ENIMi_i9A730O1I36YK_">
    <mxGraphModel dx="1554" dy="815" grid="1" gridSize="10" guides="1" tooltips="1" connect="1" arrows="1" fold="1" page="1" pageScale="1" pageWidth="827" pageHeight="1169" math="0" shadow="0">
      <root>
        <mxCell id="0" />
        <mxCell id="1" parent="0" />
        <mxCell id="tBfcPqon2l_4-mGw5oP5-3" value="" style="edgeStyle=orthogonalEdgeStyle;rounded=0;orthogonalLoop=1;jettySize=auto;html=1;" edge="1" parent="1" source="tBfcPqon2l_4-mGw5oP5-1" target="tBfcPqon2l_4-mGw5oP5-2">
          <mxGeometry relative="1" as="geometry" />
        </mxCell>
        <mxCell id="tBfcPqon2l_4-mGw5oP5-1" value="Image" style="html=1;whiteSpace=wrap;" vertex="1" parent="1">
          <mxGeometry x="110" y="260" width="110" height="50" as="geometry" />
        </mxCell>
        <mxCell id="tBfcPqon2l_4-mGw5oP5-5" value="" style="edgeStyle=orthogonalEdgeStyle;rounded=0;orthogonalLoop=1;jettySize=auto;html=1;" edge="1" parent="1" source="tBfcPqon2l_4-mGw5oP5-2" target="tBfcPqon2l_4-mGw5oP5-4">
          <mxGeometry relative="1" as="geometry" />
        </mxCell>
        <mxCell id="tBfcPqon2l_4-mGw5oP5-2" value="MaskableGraphic" style="html=1;whiteSpace=wrap;" vertex="1" parent="1">
          <mxGeometry x="340" y="170" width="110" height="50" as="geometry" />
        </mxCell>
        <mxCell id="tBfcPqon2l_4-mGw5oP5-4" value="Graphic" style="html=1;whiteSpace=wrap;" vertex="1" parent="1">
          <mxGeometry x="340" y="30" width="110" height="50" as="geometry" />
        </mxCell>
        <mxCell id="tBfcPqon2l_4-mGw5oP5-7" style="edgeStyle=orthogonalEdgeStyle;rounded=0;orthogonalLoop=1;jettySize=auto;html=1;entryX=0.5;entryY=1;entryDx=0;entryDy=0;" edge="1" parent="1" source="tBfcPqon2l_4-mGw5oP5-6" target="tBfcPqon2l_4-mGw5oP5-2">
          <mxGeometry relative="1" as="geometry" />
        </mxCell>
        <mxCell id="tBfcPqon2l_4-mGw5oP5-6" value="Text" style="html=1;whiteSpace=wrap;" vertex="1" parent="1">
          <mxGeometry x="600" y="265" width="110" height="40" as="geometry" />
        </mxCell>
        <mxCell id="tBfcPqon2l_4-mGw5oP5-9" style="edgeStyle=orthogonalEdgeStyle;rounded=0;orthogonalLoop=1;jettySize=auto;html=1;entryX=0.5;entryY=1;entryDx=0;entryDy=0;" edge="1" parent="1" source="tBfcPqon2l_4-mGw5oP5-8" target="tBfcPqon2l_4-mGw5oP5-2">
          <mxGeometry relative="1" as="geometry" />
        </mxCell>
        <mxCell id="tBfcPqon2l_4-mGw5oP5-8" value="RawImage" style="html=1;whiteSpace=wrap;" vertex="1" parent="1">
          <mxGeometry x="340" y="305" width="110" height="50" as="geometry" />
        </mxCell>
        <mxCell id="tBfcPqon2l_4-mGw5oP5-13" style="edgeStyle=orthogonalEdgeStyle;rounded=0;orthogonalLoop=1;jettySize=auto;html=1;exitX=0.5;exitY=0;exitDx=0;exitDy=0;entryX=0.5;entryY=1;entryDx=0;entryDy=0;" edge="1" parent="1" source="tBfcPqon2l_4-mGw5oP5-11" target="tBfcPqon2l_4-mGw5oP5-12">
          <mxGeometry relative="1" as="geometry" />
        </mxCell>
        <mxCell id="tBfcPqon2l_4-mGw5oP5-11" value="Dropdown" style="html=1;whiteSpace=wrap;" vertex="1" parent="1">
          <mxGeometry x="170" y="585" width="110" height="50" as="geometry" />
        </mxCell>
        <mxCell id="tBfcPqon2l_4-mGw5oP5-12" value="Selectable" style="html=1;whiteSpace=wrap;" vertex="1" parent="1">
          <mxGeometry x="304" y="470" width="110" height="50" as="geometry" />
        </mxCell>
        <mxCell id="tBfcPqon2l_4-mGw5oP5-15" value="" style="edgeStyle=orthogonalEdgeStyle;rounded=0;orthogonalLoop=1;jettySize=auto;html=1;" edge="1" parent="1" source="tBfcPqon2l_4-mGw5oP5-14" target="tBfcPqon2l_4-mGw5oP5-12">
          <mxGeometry relative="1" as="geometry" />
        </mxCell>
        <mxCell id="tBfcPqon2l_4-mGw5oP5-14" value="Button" style="html=1;whiteSpace=wrap;" vertex="1" parent="1">
          <mxGeometry x="414" y="585" width="110" height="50" as="geometry" />
        </mxCell>
      </root>
    </mxGraphModel>
  </diagram>
</mxfile>
